# xmcd
#
# Track frame offsets:
#	150
#	13443
#	21930
#	44289
#	60586
#	71428
#	82218
#	96473
#	105767
#	119270
#	137114
#	142814
#	156533
#	175400
#	187380
#
# Disc length: 2704 seconds
#
# Revision: 0
# Processed by: cddbd v1.5.1PL2 Copyright (c) Steve Scherf et al.
# Submitted via: dBpowerAMP V4.0
#
DISCID=dc0a8e0f
DTITLE=Various Artist - Gloryland [CD2]
DYEAR=2006
DGENRE=Bluegrass
TTITLE0=I've Just Seen The Rock Of Ages - Larry Sparks
TTITLE1=Angel Band - Ralph Stanley
TTITLE2=The Model Church - J. D. Crowe And The New South
TTITLE3=I Just Want To Thank You Lord - Marshall Family
TTITLE4=Bright Morning Star! - The Country Gentlemen
TTITLE5=Wait A Little Longer, Please Jesus - Del McCoury And The Dixie Pals
TTITLE6=First Step To Heaven - Rhonda Vincent And The Sally Mountain Show
TTITLE7=I'll Meet You In The Morning - Appalachian Express
TTITLE8=Heaven - The Seldom Scene
TTITLE9=When They Ring Those Golden Bells - Jim Eanes
TTITLE10=He Will Set Your Fields On Fire - Don Reno And Benny Martin
TTITLE11=Precious Memories - The Stanley Brothers
TTITLE12=Whispering Hope - Paul Williams
TTITLE13=Talk About Suffering - Forbes Family
TTITLE14=What A Friend We Have In Jesus - Lost And Found
EXTD=
EXTT0=
EXTT1=
EXTT2=
EXTT3=
EXTT4=
EXTT5=
EXTT6=
EXTT7=
EXTT8=
EXTT9=
EXTT10=
EXTT11=
EXTT12=
EXTT13=
EXTT14=
PLAYORDER=
